{
  "asset": {
    "generator": "Khronos glTF Blender I/O v5.0.21",
    "version": "2.0"
  },
  "extensionsUsed": ["KHR_materials_specular"],
  "scene": 0,
  "scenes": [
    {
      "name": "Scene",
      "nodes": [0, 1, 2, 3, 4]
    }
  ],
  "nodes": [
    {
      "mesh": 0,
      "name": "ceiling-fan"
    },
    {
      "mesh": 1,
      "name": "ceiling-fan-blades"
    },
    {
      "extras": {
        "physics.halfHeight": 0.04,
        "physics.radius": 0.74,
        "physics.role": "collider",
        "physics.shape": "cylinder",
        "physics.target": "ceiling-fan-blades"
      },
      "name": "collider-ceiling-fan-blades",
      "scale": [0.7400000095367432, 0.03999999910593033, 0.7400000095367432],
      "translation": [0, -0.4000000059604645, 0]
    },
    {
      "extras": {
        "physics.halfExtents": [0.16, 0.25, 0.16],
        "physics.role": "collider",
        "physics.shape": "cuboid",
        "physics.target": "ceiling-fan"
      },
      "name": "collider-ceiling-fan",
      "scale": [0.1599999964237213, 0.25000001072883606, 0.1599999964237213],
      "translation": [0, -0.25, 0]
    },
    {
      "extras": {
        "physics.bodyA": "ceiling-fan",
        "physics.bodyB": "ceiling-fan-blades",
        "physics.jointType": "revolute",
        "physics.role": "joint"
      },
      "name": "joint-ceiling-fan-blades",
      "translation": [0, -0.4000000059604645, 0]
    }
  ],
  "materials": [
    {
      "doubleSided": true,
      "emissiveTexture": {
        "index": 0
      },
      "extensions": {
        "KHR_materials_specular": {
          "specularTexture": {
            "index": 1
          }
        }
      },
      "name": "ceiling-fan",
      "normalTexture": {
        "index": 2
      },
      "pbrMetallicRoughness": {
        "baseColorTexture": {
          "index": 3
        },
        "metallicRoughnessTexture": {
          "index": 4
        }
      }
    }
  ],
  "meshes": [
    {
      "name": "Cylinder.003",
      "primitives": [
        {
          "attributes": {
            "POSITION": 0,
            "NORMAL": 1,
            "TEXCOORD_0": 2
          },
          "indices": 3,
          "material": 0
        }
      ]
    },
    {
      "name": "Plane.013",
      "primitives": [
        {
          "attributes": {
            "POSITION": 4,
            "NORMAL": 5,
            "TEXCOORD_0": 6
          },
          "indices": 7,
          "material": 0
        }
      ]
    }
  ],
  "textures": [
    {
      "sampler": 0,
      "source": 0
    },
    {
      "sampler": 0,
      "source": 1
    },
    {
      "sampler": 0,
      "source": 2
    },
    {
      "sampler": 0,
      "source": 3
    },
    {
      "sampler": 0,
      "source": 4
    }
  ],
  "images": [
    {
      "mimeType": "image/png",
      "name": "ceiling-fan-emissive-1k",
      "uri": "ceiling-fan-emissive-1k.png"
    },
    {
      "mimeType": "image/png",
      "name": "ceiling-fan-spec-1k",
      "uri": "ceiling-fan-spec-1k.png"
    },
    {
      "mimeType": "image/png",
      "name": "ceiling-fan-nor-gl",
      "uri": "ceiling-fan-nor-gl.png"
    },
    {
      "mimeType": "image/jpeg",
      "name": "ceiling-fan-diff-1k",
      "uri": "ceiling-fan-diff-1k.jpg"
    },
    {
      "mimeType": "image/png",
      "name": "ceiling-fan-metal-ceiling-fan-rough",
      "uri": "ceiling-fan-metal-ceiling-fan-rough.png"
    }
  ],
  "accessors": [
    {
      "bufferView": 0,
      "componentType": 5126,
      "count": 8041,
      "max": [0.15896688401699066, 0, 0.15896691381931305],
      "min": [-0.15896692872047424, -0.516343355178833, -0.15896688401699066],
      "type": "VEC3"
    },
    {
      "bufferView": 1,
      "componentType": 5126,
      "count": 8041,
      "type": "VEC3"
    },
    {
      "bufferView": 2,
      "componentType": 5126,
      "count": 8041,
      "type": "VEC2"
    },
    {
      "bufferView": 3,
      "componentType": 5123,
      "count": 35208,
      "type": "SCALAR"
    },
    {
      "bufferView": 4,
      "componentType": 5126,
      "count": 3112,
      "max": [0.7305503487586975, -0.35511550307273865, 0.7322510480880737],
      "min": [-0.7323667407035828, -0.42777419090270996, -0.7306660413742065],
      "type": "VEC3"
    },
    {
      "bufferView": 5,
      "componentType": 5126,
      "count": 3112,
      "type": "VEC3"
    },
    {
      "bufferView": 6,
      "componentType": 5126,
      "count": 3112,
      "type": "VEC2"
    },
    {
      "bufferView": 7,
      "componentType": 5123,
      "count": 13860,
      "type": "SCALAR"
    }
  ],
  "bufferViews": [
    {
      "buffer": 0,
      "byteLength": 96492,
      "byteOffset": 0,
      "target": 34962
    },
    {
      "buffer": 0,
      "byteLength": 96492,
      "byteOffset": 96492,
      "target": 34962
    },
    {
      "buffer": 0,
      "byteLength": 64328,
      "byteOffset": 192984,
      "target": 34962
    },
    {
      "buffer": 0,
      "byteLength": 70416,
      "byteOffset": 257312,
      "target": 34963
    },
    {
      "buffer": 0,
      "byteLength": 37344,
      "byteOffset": 327728,
      "target": 34962
    },
    {
      "buffer": 0,
      "byteLength": 37344,
      "byteOffset": 365072,
      "target": 34962
    },
    {
      "buffer": 0,
      "byteLength": 24896,
      "byteOffset": 402416,
      "target": 34962
    },
    {
      "buffer": 0,
      "byteLength": 27720,
      "byteOffset": 427312,
      "target": 34963
    }
  ],
  "samplers": [
    {
      "magFilter": 9729,
      "minFilter": 9987
    }
  ],
  "buffers": [
    {
      "byteLength": 455032,
      "uri": "ceiling-fan.bin"
    }
  ]
}
